<?xml version="1.0" encoding="UTF-8"?>
<svg id="Layer_2" data-name="Layer 2" xmlns="http://www.w3.org/2000/svg" viewBox="0 0 803.39 155.37">
  <defs>
    <style>
      .cls-1 {
        fill: #f5f5f7;
      }
    </style>
  </defs>
  <g id="Layer_1-2" data-name="Layer 1">
    <g>
      <g>
        <path class="cls-1" d="M84.71,74.29c-1.06-7.25-3.96-12.72-8.72-16.42-4.76-3.7-10.76-5.55-18.01-5.55-3.32,0-6.87.57-10.65,1.7-3.78,1.13-7.25,3.25-10.42,6.34-3.17,3.1-5.81,7.4-7.93,12.91-2.12,5.51-3.17,12.72-3.17,21.63,0,4.83.57,9.67,1.7,14.5,1.13,4.83,2.94,9.14,5.44,12.91,2.49,3.78,5.7,6.83,9.63,9.17,3.92,2.34,8.68,3.51,14.27,3.51,7.55,0,13.78-2.34,18.69-7.02,4.9-4.68,7.96-11.25,9.17-19.7h25.82c-2.42,15.25-8.19,26.92-17.33,34.99-9.14,8.08-21.25,12.12-36.35,12.12-9.21,0-17.33-1.55-24.35-4.64-7.02-3.09-12.95-7.32-17.78-12.68-4.83-5.36-8.49-11.74-10.98-19.14-2.49-7.4-3.74-15.4-3.74-24.01s1.21-16.99,3.62-24.69c2.41-7.7,6.04-14.38,10.87-20.04,4.83-5.66,10.83-10.11,18.01-13.36,7.17-3.25,15.59-4.87,25.25-4.87,6.79,0,13.25.87,19.36,2.6,6.11,1.74,11.55,4.34,16.31,7.81,4.76,3.48,8.64,7.85,11.66,13.14,3.02,5.29,4.83,11.55,5.44,18.8h-25.82Z"/>
        <path class="cls-1" d="M227.5,152.2h-25.37v-16.31h-.45c-3.17,5.89-7.89,10.61-14.16,14.16-6.27,3.55-12.65,5.32-19.14,5.32-15.4,0-26.54-3.81-33.41-11.44-6.87-7.62-10.3-19.14-10.3-34.54V35.11h25.82v71.8c0,10.27,1.96,17.52,5.89,21.74,3.92,4.23,9.43,6.34,16.53,6.34,5.44,0,9.97-.83,13.59-2.49,3.62-1.66,6.57-3.89,8.83-6.68,2.27-2.79,3.89-6.15,4.87-10.08.98-3.92,1.47-8.15,1.47-12.68V35.11h25.82v117.09Z"/>
        <path class="cls-1" d="M248.43,35.11h24.23v22.65h.45c.75-3.17,2.23-6.26,4.42-9.29,2.19-3.02,4.83-5.78,7.93-8.27,3.09-2.49,6.53-4.49,10.3-6,3.77-1.51,7.62-2.26,11.55-2.26,3.02,0,5.1.08,6.23.23,1.13.15,2.3.3,3.51.45v24.91c-1.81-.3-3.66-.57-5.55-.79-1.89-.23-3.74-.34-5.55-.34-4.38,0-8.49.87-12.34,2.61-3.85,1.74-7.21,4.3-10.08,7.7-2.87,3.4-5.13,7.59-6.79,12.57-1.66,4.98-2.49,10.72-2.49,17.21v55.72h-25.82V35.11Z"/>
        <path class="cls-1" d="M324.73,35.11h24.23v22.65h.45c.75-3.17,2.23-6.26,4.42-9.29,2.19-3.02,4.83-5.78,7.93-8.27,3.09-2.49,6.53-4.49,10.3-6,3.77-1.51,7.62-2.26,11.55-2.26,3.02,0,5.1.08,6.23.23,1.13.15,2.3.3,3.51.45v24.91c-1.81-.3-3.66-.57-5.55-.79-1.89-.23-3.74-.34-5.55-.34-4.38,0-8.49.87-12.34,2.61-3.85,1.74-7.21,4.3-10.08,7.7-2.87,3.4-5.13,7.59-6.79,12.57-1.66,4.98-2.49,10.72-2.49,17.21v55.72h-25.82V35.11Z"/>
        <path class="cls-1" d="M420.19,100.33c0,4.53.64,8.91,1.93,13.14,1.28,4.23,3.21,7.93,5.78,11.1,2.57,3.17,5.81,5.7,9.74,7.59,3.92,1.89,8.61,2.83,14.04,2.83,7.55,0,13.62-1.62,18.23-4.87,4.6-3.25,8.04-8.12,10.3-14.61h24.46c-1.36,6.34-3.7,12-7.02,16.99-3.32,4.98-7.33,9.17-12,12.57-4.68,3.4-9.93,5.97-15.74,7.7-5.81,1.73-11.89,2.6-18.23,2.6-9.21,0-17.36-1.51-24.46-4.53-7.1-3.02-13.1-7.25-18.01-12.68-4.91-5.44-8.61-11.93-11.1-19.48-2.49-7.55-3.74-15.85-3.74-24.91,0-8.3,1.32-16.19,3.96-23.67,2.64-7.47,6.42-14.04,11.32-19.7,4.9-5.66,10.83-10.15,17.78-13.48,6.94-3.32,14.8-4.98,23.55-4.98,9.21,0,17.47,1.92,24.8,5.78,7.32,3.85,13.4,8.95,18.23,15.29,4.83,6.34,8.34,13.63,10.53,21.86,2.19,8.23,2.75,16.72,1.7,25.48h-86.06ZM480.44,83.35c-.3-4.08-1.17-8-2.6-11.78-1.44-3.77-3.4-7.06-5.89-9.85-2.49-2.79-5.51-5.06-9.06-6.79-3.55-1.73-7.51-2.6-11.89-2.6s-8.65.79-12.34,2.38c-3.7,1.59-6.87,3.78-9.51,6.57-2.64,2.8-4.76,6.08-6.34,9.85-1.59,3.78-2.46,7.85-2.6,12.23h60.25Z"/>
        <path class="cls-1" d="M520.84,35.11h24.46v17.21l.45.45c3.92-6.49,9.06-11.59,15.4-15.29,6.34-3.7,13.36-5.55,21.06-5.55,12.83,0,22.95,3.32,30.35,9.97,7.4,6.65,11.1,16.61,11.1,29.9v80.4h-25.82v-73.61c-.3-9.21-2.27-15.89-5.89-20.04-3.62-4.15-9.29-6.23-16.99-6.23-4.38,0-8.31.79-11.78,2.38-3.48,1.59-6.42,3.78-8.83,6.57-2.42,2.8-4.3,6.08-5.66,9.85-1.36,3.78-2.04,7.78-2.04,12v69.08h-25.82V35.11Z"/>
        <path class="cls-1" d="M651.75,151.97V54.36h-19.48v-19.25h19.48V0h25.82v116.87c0,2.72.12,33.14.34,35.1"/>
      </g>
      <g>
        <path class="cls-1" d="M688.45,34.66c10.88,8.36,21.75,9.6,32.63,7.77,18.63-3.15,37.27-15.33,55.9-16.22,8.8-.42,17.61,1.68,26.41,8.45v19.38c-8.8-6.77-17.61-8.87-26.41-8.45-18.63.89-37.27,13.07-55.9,16.22-10.88,1.84-21.75.6-32.63-7.77,0-6.46,0-12.92,0-19.38Z"/>
        <path class="cls-1" d="M688.45,64.28c10.88,8.36,21.75,9.6,32.63,7.77,18.63-3.15,37.27-15.33,55.9-16.22,8.8-.42,17.61,1.68,26.41,8.45v19.38c-8.8-6.77-17.61-8.87-26.41-8.45-18.63.89-37.27,13.07-55.9,16.22-10.88,1.84-21.75.6-32.63-7.77,0-6.46,0-12.92,0-19.38Z"/>
        <path class="cls-1" d="M688.45,93.89c10.88,8.36,21.75,9.6,32.63,7.77,18.63-3.15,37.27-15.33,55.9-16.22,8.8-.42,17.61,1.68,26.41,8.45v19.38c-8.8-6.77-17.61-8.87-26.41-8.45-18.63.89-37.27,13.07-55.9,16.22-10.88,1.84-21.75.6-32.63-7.77v-19.38Z"/>
        <path class="cls-1" d="M688.45,123.5c10.88,8.36,21.75,9.6,32.63,7.77,18.63-3.15,37.27-15.33,55.9-16.22,8.8-.42,17.61,1.68,26.41,8.45v19.38c-8.8-6.77-17.61-8.87-26.41-8.45-18.63.89-37.27,13.07-55.9,16.22-10.88,1.84-21.75.6-32.63-7.77v-19.38Z"/>
      </g>
    </g>
  </g>
</svg>