<?xml version="1.0" encoding="UTF-8"?>
<svg id="Layer_2" data-name="Layer 2" xmlns="http://www.w3.org/2000/svg" viewBox="0 0 114.94 125.23">
  <g id="Layer_1-2" data-name="Layer 1">
    <g>
      <path d="M0,8.5c10.88,8.36,21.75,9.6,32.63,7.77C51.26,13.12,69.89.94,88.53.05c8.8-.42,17.61,1.68,26.41,8.45v19.38c-8.8-6.77-17.61-8.87-26.41-8.45-18.63.89-37.27,13.07-55.9,16.22C21.75,37.49,10.88,36.25,0,27.89,0,21.42,0,14.96,0,8.5Z"/>
      <path d="M0,38.12c10.88,8.36,21.75,9.6,32.63,7.77,18.63-3.15,37.27-15.33,55.9-16.22,8.8-.42,17.61,1.68,26.41,8.45v19.38c-8.8-6.77-17.61-8.87-26.41-8.45-18.63.89-37.27,13.07-55.9,16.22C21.75,67.1,10.88,65.86,0,57.5,0,51.04,0,44.58,0,38.12Z"/>
      <path d="M0,67.73c10.88,8.36,21.75,9.6,32.63,7.77,18.63-3.15,37.27-15.33,55.9-16.22,8.8-.42,17.61,1.68,26.41,8.45v19.38c-8.8-6.77-17.61-8.87-26.41-8.45-18.63.89-37.27,13.07-55.9,16.22C21.75,96.71,10.88,95.47,0,87.11v-19.38Z"/>
      <path d="M0,97.34c10.88,8.36,21.75,9.6,32.63,7.77,18.63-3.15,37.27-15.33,55.9-16.22,8.8-.42,17.61,1.68,26.41,8.45v19.38c-8.8-6.77-17.61-8.87-26.41-8.45-18.63.89-37.27,13.07-55.9,16.22C21.75,126.33,10.88,125.09,0,116.72v-19.38Z"/>
    </g>
  </g>
</svg>