<?xml version="1.0" encoding="UTF-8"?>
<svg id="Layer_2" data-name="Layer 2" xmlns="http://www.w3.org/2000/svg" viewBox="0 0 251.65 251.65">
  <defs>
    <style>
      .cls-1 {
        fill: #5578f6;
      }

      .cls-2 {
        fill: #f5f5f7;
      }
    </style>
  </defs>
  <g id="Layer_1-2" data-name="Layer 1">
    <g>
      <rect class="cls-1" width="251.65" height="251.65" rx="36" ry="36"/>
      <g>
        <path class="cls-2" d="M68.35,71.71c10.88,8.36,21.75,9.6,32.63,7.77,18.63-3.15,37.27-15.33,55.9-16.22,8.8-.42,17.61,1.68,26.41,8.45v19.38c-8.8-6.77-17.61-8.87-26.41-8.45-18.63.89-37.27,13.07-55.9,16.22-10.88,1.84-21.75.6-32.63-7.77,0-6.46,0-12.92,0-19.38Z"/>
        <path class="cls-2" d="M68.35,101.33c10.88,8.36,21.75,9.6,32.63,7.77,18.63-3.15,37.27-15.33,55.9-16.22,8.8-.42,17.61,1.68,26.41,8.45v19.38c-8.8-6.77-17.61-8.87-26.41-8.45-18.63.89-37.27,13.07-55.9,16.22-10.88,1.84-21.75.6-32.63-7.77,0-6.46,0-12.92,0-19.38Z"/>
        <path class="cls-2" d="M68.35,130.94c10.88,8.36,21.75,9.6,32.63,7.77,18.63-3.15,37.27-15.33,55.9-16.22,8.8-.42,17.61,1.68,26.41,8.45v19.38c-8.8-6.77-17.61-8.87-26.41-8.45-18.63.89-37.27,13.07-55.9,16.22-10.88,1.84-21.75.6-32.63-7.77v-19.38Z"/>
        <path class="cls-2" d="M68.35,160.55c10.88,8.36,21.75,9.6,32.63,7.77,18.63-3.15,37.27-15.33,55.9-16.22,8.8-.42,17.61,1.68,26.41,8.45v19.38c-8.8-6.77-17.61-8.87-26.41-8.45-18.63.89-37.27,13.07-55.9,16.22-10.88,1.84-21.75.6-32.63-7.77v-19.38Z"/>
      </g>
    </g>
  </g>
</svg>